HIERARCHY
ROOT Hips
{
	OFFSET 0.00000 0.00000 0.00000
	CHANNELS 6 Xposition Yposition Zposition Zrotation Yrotation Xrotation 
	JOINT LHipJoint
	{
		OFFSET 0 0 0
		CHANNELS 3 Zrotation Yrotation Xrotation
		JOINT LeftUpLeg
		{
			OFFSET 1.37959 -1.78713 0.86582
			CHANNELS 3 Zrotation Yrotation Xrotation
			JOINT LeftLeg
			{
				OFFSET 2.54611 -6.99539 0.00000
				CHANNELS 3 Zrotation Yrotation Xrotation
				JOINT LeftFoot
				{
					OFFSET 2.59951 -7.14211 0.00000
					CHANNELS 3 Zrotation Yrotation Xrotation
					JOINT LeftToeBase
					{
						OFFSET 0.18493 -0.50810 1.96120
						CHANNELS 3 Zrotation Yrotation Xrotation
						End Site
						{
							OFFSET 0.00000 -0.00000 1.02054
						}
					}
				}
			}
		}
	}
	JOINT RHipJoint
	{
		OFFSET 0 0 0
		CHANNELS 3 Zrotation Yrotation Xrotation
		JOINT RightUpLeg
		{
			OFFSET -1.33564 -1.78713 0.86582
			CHANNELS 3 Zrotation Yrotation Xrotation
			JOINT RightLeg
			{
				OFFSET -2.52705 -6.94302 0.00000
				CHANNELS 3 Zrotation Yrotation Xrotation
				JOINT RightFoot
				{
					OFFSET -2.55964 -7.03257 0.00000
					CHANNELS 3 Zrotation Yrotation Xrotation
					JOINT RightToeBase
					{
						OFFSET -0.25804 -0.70896 2.12109
						CHANNELS 3 Zrotation Yrotation Xrotation
						End Site
						{
							OFFSET -0.00000 -0.00000 1.11821
						}
					}
				}
			}
		}
	}
	JOINT LowerBack
	{
		OFFSET 0 0 0
		CHANNELS 3 Zrotation Yrotation Xrotation
		JOINT Spine
		{
			OFFSET -0.02031 2.24248 -0.18900
			CHANNELS 3 Zrotation Yrotation Xrotation
			JOINT Spine1
			{
				OFFSET 0.08342 2.24689 -0.03799
				CHANNELS 3 Zrotation Yrotation Xrotation
				JOINT Neck
				{
					OFFSET 0 0 0
					CHANNELS 3 Zrotation Yrotation Xrotation
					JOINT Neck1
					{
						OFFSET -0.11607 1.55844 0.24628
						CHANNELS 3 Zrotation Yrotation Xrotation
						JOINT Head
						{
							OFFSET 0.06877 1.60174 -0.17013
							CHANNELS 3 Zrotation Yrotation Xrotation
							End Site
							{
								OFFSET 0.03358 1.61266 -0.08543
							}
						}
					}
				}
				JOINT LeftShoulder
				{
					OFFSET 0 0 0
					CHANNELS 3 Zrotation Yrotation Xrotation
					JOINT LeftArm
					{
						OFFSET 3.47537 0.55866 -0.72348
						CHANNELS 3 Zrotation Yrotation Xrotation
						JOINT LeftForeArm
						{
							OFFSET 5.38154 -0.00000 0.00000
							CHANNELS 3 Zrotation Yrotation Xrotation
							JOINT LeftHand
							{
								OFFSET 3.33312 -0.00000 0.00000
								CHANNELS 3 Zrotation Yrotation Xrotation
								JOINT LeftFingerBase
								{
									OFFSET 0 0 0
									CHANNELS 3 Zrotation Yrotation Xrotation
									JOINT LeftHandIndex1
									{
										OFFSET 0.71079 -0.00000 0.00000
										CHANNELS 3 Zrotation Yrotation Xrotation
										End Site
										{
											OFFSET 0.57306 -0.00000 0.00000
										}
									}
								}
								JOINT LThumb
								{
									OFFSET 0 0 0
									CHANNELS 3 Zrotation Yrotation Xrotation
									End Site
									{
										OFFSET 0.58181 -0.00000 0.58181
									}
								}
							}
						}
					}
				}
				JOINT RightShoulder
				{
					OFFSET 0 0 0
					CHANNELS 3 Zrotation Yrotation Xrotation
					JOINT RightArm
					{
						OFFSET -3.27844 0.90739 -0.35708
						CHANNELS 3 Zrotation Yrotation Xrotation
						JOINT RightForeArm
						{
							OFFSET -5.16954 -0.00000 0.00000
							CHANNELS 3 Zrotation Yrotation Xrotation
							JOINT RightHand
							{
								OFFSET -3.38287 -0.00000 0.00000
								CHANNELS 3 Zrotation Yrotation Xrotation
								JOINT RightFingerBase
								{
									OFFSET 0 0 0
									CHANNELS 3 Zrotation Yrotation Xrotation
									JOINT RightHandIndex1
									{
										OFFSET -0.81797 -0.00000 0.00000
										CHANNELS 3 Zrotation Yrotation Xrotation
										End Site
										{
											OFFSET -0.65947 -0.00000 0.00000
										}
									}
								}
								JOINT RThumb
								{
									OFFSET 0 0 0
									CHANNELS 3 Zrotation Yrotation Xrotation
									End Site
									{
										OFFSET -0.66953 -0.00000 0.66953
									}
								}
							}
						}
					}
				}
			}
		}
	}
}
MOTION
Frames: 6
Frame Time: .0083333
-1.1822 17.9024 22.8469 0 0 0 0 0 0 -21 0 0 0 0 0 0 0 0 0 0 0 0 0 0 21 0 0 0 0 0 0 0 0 0 0 0 0 0 0 0 0 0 0 0 0 0 0 -16 0 0 21 0 0 11 0 0 0 -8 0 0 0 0 0 0 0 0 0 0 0 0 0 0 0 0 0 0 0 0 8 0 0 0 0 0 0 0 0 0 0 0 0 0 0 0 0 0
-1.1822 17.9024 22.8469 -176.6720 -2.8503 -170.4810 0.0000 0.0000 0.0000 -11.1634 -7.5316 -37.1328 4.9917 13.3745 40.7870 0.5969 -3.4634 -13.8268 0.7858 -5.6591 -15.7986 0.0000 0.0000 0.0000 28.6797 -1.1436 1.1180 -0.3161 -3.6143 9.9941 -0.8371 7.9824 -16.4284 -0.4604 -4.3526 12.0709 2.7922 0.1890 2.2021 3.5558 0.1992 0.0635 2.0802 0.0220 -1.1702 -13.9023 -5.4957 -13.9194 4.8993 -5.4368 11.5781 3.2682 -2.9059 6.3236 -0.0000 -0.0000 0.0000 -92.7409 -0.5844 17.1682 14.9354 -24.0560 -3.1996 -0.0000 -0.0000 10.4737 1.8960 36.5923 1.1305 -7.1250 0.0000 -0.0000 -38.5445 62.3586 -17.6367 -0.0000 -0.0000 0.0000 86.3803 -1.1949 9.3104 -16.0584 25.5998 -3.6712 0.0000 -0.0000 -9.3907 -16.9488 18.5976 -5.5513 7.1250 -0.0000 -0.0000 7.2950 -10.7217 5.8594
-1.1937 17.9177 22.7903 -176.4580 -2.6552 -170.4210 0.0000 0.0000 0.0000 -10.6200 -7.8685 -37.5272 4.8264 13.1855 40.0670 0.5513 -3.2176 -13.2959 0.5057 -4.5585 -12.6533 0.0000 0.0000 0.0000 28.8111 -1.4940 2.4423 -0.1864 -2.7803 7.6678 -0.7308 7.5149 -15.3462 -0.4045 -4.0833 11.3111 3.0419 0.2948 2.3230 3.5237 0.3513 0.0469 1.9021 0.0948 -1.2554 -13.5709 -5.5753 -14.0756 4.6460 -5.5549 11.7133 3.1173 -2.9697 6.3873 -0.0000 0.0000 0.0000 -92.5645 -0.5343 17.3413 14.8785 -23.9765 -3.1764 -0.0000 -0.0000 10.4467 1.7167 36.4532 1.0202 -7.1250 0.0000 -0.0000 -38.5514 62.2046 -17.5006 -0.0000 0.0000 0.0000 86.5361 -1.2772 9.1243 -16.0234 25.5523 -3.6560 0.0000 -0.0000 -9.0985 -16.2405 18.6303 -5.3164 7.1250 -0.0000 -0.0000 7.7585 -10.7695 6.2310
-1.2047 17.9148 22.7348 -176.4690 -2.4434 -170.4550 0.0000 0.0000 0.0000 -10.4525 -8.0914 -37.6824 4.5557 12.8652 38.8661 0.4963 -2.7882 -12.6438 0.1061 -2.1003 -5.7829 0.0000 0.0000 0.0000 28.7240 -1.5724 2.9146 -0.1669 -2.6317 7.2550 -0.7322 7.3450 -15.3425 -0.2691 -3.3372 9.2189 3.0128 0.3297 2.5750 3.4667 0.4152 0.0285 1.8570 0.1273 -1.4164 -13.3265 -5.5556 -14.1755 4.4097 -5.5312 11.7579 3.0024 -2.9665 6.4022 -0.0000 -0.0000 0.0000 -92.4159 -0.3155 17.6853 14.9534 -24.0812 -3.2069 -0.0000 -0.0000 10.0925 2.2907 36.6888 1.3691 -7.1250 0.0000 -0.0000 -38.2755 62.5354 -17.6527 -0.0000 -0.0000 0.0000 86.6067 -1.4726 9.3202 -16.0804 25.6295 -3.6807 0.0000 -0.0000 -8.9961 -16.5868 18.4817 -5.3940 7.1250 -0.0000 -0.0000 7.5267 -10.8822 6.0239
-1.2141 17.8992 22.6796 -176.5300 -2.3029 -170.5490 0.0000 0.0000 0.0000 -10.4476 -8.1325 -37.8915 4.2974 12.5460 37.6918 0.4615 -2.7440 -12.1837 0.4995 -4.5310 -12.5754 0.0000 0.0000 0.0000 28.5832 -1.8155 3.5886 -0.1368 -2.3842 6.5688 -0.7173 7.2734 -15.1842 -0.2308 -3.0919 8.5348 2.8972 0.3360 2.7885 3.4513 0.4338 0.0296 1.9047 0.1376 -1.5361 -13.4957 -5.4823 -14.0809 4.5875 -5.4375 11.7823 3.0992 -2.9168 6.3956 -0.0000 -0.0000 0.0000 -92.3948 -0.0975 17.8857 15.0186 -24.1720 -3.2335 -0.0000 -0.0000 9.8028 2.4018 37.1441 1.4508 -7.1250 0.0000 -0.0000 -38.7305 62.9172 -18.2429 -0.0000 -0.0000 0.0000 86.5991 -1.6431 9.1811 -16.0917 25.6448 -3.6856 0.0000 -0.0000 -8.9695 -15.9626 18.3402 -5.1430 7.1250 -0.0000 -0.0000 7.9296 -11.0964 6.3176
-1.2264 17.8651 22.6191 -176.4450 -2.1757 -170.5540 0.0000 0.0000 0.0000 -10.4065 -8.0139 -38.1970 4.0237 12.1919 36.4142 0.4328 -2.5859 -11.8063 1.2784 -7.1655 -20.2065 0.0000 0.0000 0.0000 28.6066 -1.9099 3.9254 -0.1316 -2.3387 6.4425 -0.7238 7.4207 -15.2655 -0.2449 -3.1844 8.7925 3.1565 0.4314 2.9327 3.2685 0.5819 0.0496 1.5643 0.2122 -1.5936 -13.2213 -5.5257 -14.2933 4.6843 -5.5308 11.9565 3.0740 -2.9402 6.4899 0.0000 0.0000 0.0000 -92.0977 -0.0675 18.0371 15.0243 -24.1800 -3.2359 -0.0000 -0.0000 9.7336 1.9672 37.1737 1.1889 -7.1250 0.0000 -0.0000 -39.1934 62.8262 -18.4134 0.0000 0.0000 0.0000 86.9524 -1.6706 8.5521 -16.0681 25.6129 -3.6753 0.0000 -0.0000 -9.0330 -15.5817 18.5760 -5.0765 7.1250 -0.0000 -0.0000 8.1863 -10.8982 6.5600
